<svg xmlns="http://www.w3.org/2000/svg" width="822" height="788" viewBox="0 0 822 788" version="1.1"><path d="M 13.800 12.844 C 3.299 34.320, 0.442 46.293, 1.259 65.402 C 2.039 83.640, 7.235 103.486, 19.482 135 C 27.891 156.636, 32.050 164.290, 47.922 187.329 C 51.751 192.888, 55.948 204.021, 55.979 208.703 C 56.031 216.548, 51.294 220.067, 43.370 218.071 C 36.636 216.376, 31.559 213.537, 22.203 206.235 C 17.640 202.674, 13.643 200.023, 13.322 200.344 C 11.222 202.445, 22.149 229.945, 31.525 246.152 C 38.070 257.468, 54.278 273.539, 87.609 301.766 C 112.719 323.031, 132.754 341.292, 126.500 337.213 C 116.248 330.527, 100.441 324.907, 72.226 317.914 C 37.272 309.253, 24.596 303.732, 12.896 292.077 C 9.264 288.459, 5.122 283.249, 3.692 280.499 L 1.093 275.500 1.047 281.068 C 0.907 297.735, 15.016 321.199, 39.212 344.540 C 58.077 362.738, 68.126 369.384, 97 382.756 C 112.980 390.157, 116.121 396.189, 106.500 401 C 101.977 403.262, 100.323 403.500, 89.153 403.500 L 76.807 403.500 81.368 407.631 C 90.922 416.282, 111.712 425.049, 140.629 432.622 C 160.059 437.710, 175.714 443.546, 189 450.653 C 197.714 455.315, 220.400 469.933, 219.820 470.513 C 219.643 470.691, 217.023 470.104, 213.999 469.210 C 209.502 467.880, 202.761 467.550, 177 467.397 C 148.078 467.225, 144.960 467.038, 138.903 465.112 C 131.409 462.729, 123.758 457.366, 121.430 452.864 C 118.743 447.668, 118.994 450.173, 122.016 458.713 C 129.174 478.941, 139.601 493.192, 155.591 504.602 C 168.212 513.608, 193.817 523.991, 211.834 527.409 C 225.535 530.008, 234.568 530.266, 253.300 528.591 C 283.573 525.885, 295.634 526.579, 298.091 531.169 C 299.589 533.970, 298.216 535.194, 289.769 538.585 C 285.270 540.392, 281.046 542.963, 278.656 545.349 C 274.396 549.604, 269.482 559.314, 268.459 565.500 C 267.812 569.414, 267.833 569.451, 269.459 567.244 C 272.856 562.635, 276.484 561.713, 294.500 560.885 C 316.397 559.878, 322.643 558.422, 340.326 550.197 C 348.442 546.422, 350.307 545.877, 351.047 547.064 C 354.758 553.019, 357.122 579.421, 355.045 591.731 C 353.556 600.564, 349.294 609.733, 345.001 613.346 L 341.720 616.106 338.826 613.334 C 337.235 611.809, 334.710 608.072, 333.216 605.030 C 330.817 600.146, 330.498 598.332, 330.481 589.500 C 330.467 582.660, 330.007 578.710, 329.023 577 C 327.598 574.523, 327.579 574.544, 326.862 579.346 C 326.452 582.088, 324.914 585.932, 323.319 588.198 C 317.096 597.038, 315.047 601.441, 315.023 606.020 C 314.996 611.346, 317.762 621.849, 322.615 634.847 C 325.028 641.308, 326.012 645.477, 325.803 648.347 C 325.518 652.254, 325.302 652.519, 322.155 652.820 C 316.245 653.387, 307.036 644.611, 306.985 638.364 C 306.972 636.795, 306.816 636.737, 306 638 C 303.350 642.100, 307.112 655.215, 313.379 663.729 C 324.736 679.156, 334.068 684.211, 353.137 685.264 L 360.774 685.685 358.387 678.667 C 355.668 670.674, 355.362 665.110, 357.425 661.200 C 359.401 657.457, 372.361 644.968, 371.643 647.500 C 371.331 648.600, 370.621 652.389, 370.066 655.920 C 369.196 661.454, 369.315 662.923, 370.928 666.570 C 373.247 671.812, 376.570 673.249, 379.112 670.110 C 381.946 666.610, 385.227 655.264, 385.319 648.644 C 385.379 644.354, 384.591 640.192, 382.709 634.851 C 380.305 628.029, 380.123 626.625, 381.027 621.856 C 381.585 618.915, 383.445 613.582, 385.160 610.004 L 388.279 603.500 389.911 611.500 C 390.809 615.900, 393.202 622.875, 395.229 627 C 398.279 633.205, 399.033 636.011, 399.596 643.250 C 399.969 648.062, 400.567 652, 400.924 652 C 401.780 652, 408.531 634.800, 410.042 628.769 C 412.093 620.587, 410.900 611.747, 406.102 599.564 C 402.252 589.788, 401.835 587.925, 402.169 582.008 C 402.493 576.285, 403.450 573.515, 409.242 561.546 L 415.941 547.703 415.721 568.102 C 415.500 588.455, 415.506 588.511, 418.157 593.500 C 419.618 596.250, 423.770 601.875, 427.383 606 C 436.092 615.942, 436.995 618.016, 437.024 628.151 C 437.054 638.693, 438.202 643.657, 441.335 646.790 C 447.001 652.456, 451.334 646.556, 455.285 627.795 C 456.425 622.384, 457.665 618.304, 458.041 618.729 C 459.737 620.642, 462.307 634.443, 462.750 644.019 C 463.288 655.618, 462.258 662.258, 458.497 671.448 C 457.158 674.719, 456.288 677.622, 456.565 677.898 C 456.841 678.174, 458.589 678.400, 460.450 678.400 C 463.250 678.400, 465.055 677.247, 470.935 671.700 C 477.562 665.449, 480 663.862, 480 665.800 C 480 666.240, 479.438 667.163, 478.750 667.850 C 477.961 668.639, 477.492 672.073, 477.478 677.161 L 477.456 685.222 482.835 684.590 C 491.568 683.563, 498.571 679.600, 507.583 670.585 C 516.805 661.360, 521.108 653.740, 521.799 645.412 C 522.494 637.029, 521.346 635.659, 518.598 641.592 C 514.980 649.401, 507.130 654.821, 503.095 652.296 C 500.700 650.798, 500.633 645.729, 502.937 640.320 C 506.110 632.873, 509 620.289, 509 613.925 C 509 609.179, 508.323 606.884, 505.140 600.835 C 500.504 592.023, 497.924 584.467, 497.010 577.022 L 496.333 571.500 494.641 575.278 C 493.711 577.356, 492.479 582.756, 491.905 587.278 C 490.543 597.993, 488.527 604.157, 485.430 607.065 C 483.046 609.305, 482.795 609.341, 480.213 607.808 C 473.461 603.800, 468.004 585.328, 469.509 571.574 C 470.416 563.288, 472.983 552, 473.961 552 C 474.402 552, 477.804 553.145, 481.522 554.545 C 493.058 558.887, 499.911 560.096, 517.500 560.895 C 536.040 561.736, 539.626 562.721, 542.521 567.763 L 544.093 570.500 543.509 566.500 C 541.294 551.338, 534.253 541.790, 522.500 538.013 C 513.501 535.120, 511.973 533.792, 514.472 531.031 C 517.188 528.030, 526.937 528.366, 545.277 532.095 C 559.283 534.942, 561.499 535.137, 572.987 534.533 C 597.339 533.253, 626.655 526.606, 643.832 518.470 C 667.648 507.188, 687.182 489.590, 696.524 471 C 700.202 463.682, 704.618 450.474, 702.208 454 C 697.095 461.483, 686.913 467.221, 675.585 469.003 C 671.096 469.709, 660.395 469.864, 645.085 469.442 C 626.457 468.930, 620.081 469.095, 614.750 470.227 C 611.038 471.015, 608 471.575, 608 471.471 C 608 470.887, 619.594 463.729, 624.785 461.108 C 637.902 454.487, 649.367 450.445, 701.568 434.038 C 715.762 429.577, 733.023 420.312, 741.793 412.447 L 746.312 408.394 735.406 408.440 C 724.363 408.486, 718.405 407.262, 715.491 404.348 C 710.738 399.595, 718.409 390.376, 731.500 385.109 C 756.396 375.093, 776.606 361.545, 794.568 342.831 C 812.038 324.631, 822.015 304.143, 821.990 286.520 L 821.980 279.500 819.474 284.884 C 813.025 298.737, 796.138 309.383, 768.500 317.018 C 731.140 327.338, 708.011 335.292, 698.709 341.019 C 692.888 344.602, 693.412 343.546, 702.845 332.678 C 712.128 321.984, 716.341 318.391, 738.500 302.266 C 777.386 273.970, 788.157 261.547, 803.037 227.836 C 806.705 219.527, 809.455 211.796, 809.703 209.096 L 810.127 204.500 807.880 207.387 C 799.301 218.412, 775.101 227.206, 769.733 221.250 C 764.079 214.977, 768.041 201.734, 780.876 184 C 792.548 167.873, 805.926 137.480, 814.328 108 C 820.621 85.923, 821.502 80.190, 821.478 61.500 L 821.456 44.500 817.631 33.323 C 814.427 23.963, 802.461 0.205, 801.456 1.210 C 801.288 1.379, 801.794 4.213, 802.581 7.508 C 803.711 12.238, 803.799 15.321, 802.999 22.146 C 799.983 47.854, 783.466 76.220, 750.678 112 C 744.882 118.325, 675.196 195.309, 595.820 283.077 C 516.444 370.844, 451.214 442.169, 450.865 441.577 C 450.516 440.984, 448.095 431.275, 445.484 420 C 442.873 408.725, 440.536 398.972, 440.291 398.327 C 440.046 397.682, 440.780 396.220, 441.923 395.077 C 444.816 392.184, 449.422 392.499, 456 396.039 C 462.648 399.618, 466.765 400.176, 462.654 396.943 C 461.216 395.811, 455.025 388.274, 448.896 380.193 C 442.768 372.112, 436.347 363.982, 434.627 362.128 C 429.873 357.001, 422.722 354.021, 415.142 354.010 C 409.196 354.001, 408.306 353.681, 401.424 349.078 C 391.713 342.582, 384.657 340.943, 378.103 343.659 C 374.002 345.359, 367 352.514, 367 355.005 C 367 355.473, 369.363 355.612, 372.250 355.315 C 377.342 354.790, 377.671 354.915, 383.182 359.453 C 388.203 363.588, 389.146 364.973, 391.291 371.352 L 393.718 378.571 387.553 407.910 L 381.387 437.249 219.943 261.464 C 52.969 79.656, 44.079 69.877, 35.893 59 C 30.401 51.702, 24.036 39.973, 21.560 32.588 C 18.942 24.779, 17.705 13.121, 18.836 6.917 C 19.379 3.938, 19.750 1.430, 19.662 1.344 C 19.573 1.258, 16.935 6.433, 13.800 12.844 M 385.500 132.609 C 321.235 139.030, 268.623 158.424, 219 193.984 C 208.523 201.492, 189.984 216.741, 190.027 217.817 C 190.042 218.193, 191.637 220.203, 193.571 222.284 L 197.088 226.067 205.794 218.672 C 256.836 175.314, 318.599 149.682, 386 143.886 C 402.529 142.464, 436.951 143.290, 452.879 145.490 C 518.316 154.527, 577.544 182.133, 625.661 226.024 L 633.500 233.174 636.750 229.421 C 638.538 227.356, 640 225.346, 640 224.955 C 640 223.739, 626.353 211.296, 615.784 202.876 C 569.816 166.255, 515.045 143.012, 454.500 134.433 C 444.001 132.945, 395.077 131.652, 385.500 132.609 M 397 170 L 397 181 399.500 181 L 402 181 402 170 L 402 159 399.500 159 L 397 159 397 170 M 416.464 161.750 C 416.806 163.262, 418.093 168.100, 419.323 172.500 C 421.334 179.695, 421.822 180.531, 424.171 180.806 C 426.573 181.087, 427.003 180.526, 429.529 173.806 C 431.039 169.788, 432.848 165.079, 433.548 163.343 C 434.718 160.440, 434.653 160.142, 432.737 159.641 C 429.749 158.860, 429.403 159.283, 426.902 166.761 L 424.648 173.500 423.763 170 C 420.925 158.779, 421.033 159, 418.382 159 C 416.126 159, 415.911 159.308, 416.464 161.750 M 368.750 161.707 C 364.435 162.183, 364.503 161.811, 366.325 175 L 367.500 183.500 372.500 183.188 C 375.312 183.013, 378.594 182.079, 380 181.055 C 382.283 179.391, 382.473 178.679, 382.195 172.866 C 381.700 162.556, 379.276 160.544, 368.750 161.707 M 448.055 169.750 C 447.421 174.563, 446.683 179.544, 446.415 180.820 C 445.986 182.859, 446.264 183.101, 448.713 182.820 C 451.451 182.506, 451.523 182.325, 452.802 172.591 C 453.872 164.452, 453.872 162.535, 452.802 161.857 C 449.888 160.008, 449.183 161.181, 448.055 169.750 M 471.500 166.195 C 465.500 169.597, 467.524 177.127, 475.082 179.526 C 477.514 180.298, 477.599 183, 475.191 183 C 474.196 183, 472.509 182.339, 471.441 181.532 C 468.705 179.462, 466 179.618, 466 181.845 C 466 186.293, 474.999 189.541, 479.376 186.673 C 483.161 184.193, 483.356 180.135, 479.847 176.857 C 478.225 175.342, 475.996 173.816, 474.894 173.466 C 473.792 173.117, 473.069 172.306, 473.288 171.665 C 473.738 170.349, 478.321 170.704, 478.833 172.095 C 479.304 173.373, 484 173.226, 484 171.934 C 484 169.362, 481.698 167.010, 478.238 166.049 C 473.727 164.797, 473.976 164.791, 471.500 166.195 M 371.709 166.624 C 370.848 167.485, 370.803 172.664, 371.630 175.750 C 372.036 177.265, 372.993 178, 374.558 178 C 377.604 178, 377.829 177.427, 377.108 171.500 C 376.618 167.473, 376.103 166.443, 374.459 166.208 C 373.336 166.047, 372.099 166.235, 371.709 166.624 M 322.500 172.272 C 319.200 173.373, 316.360 174.390, 316.188 174.532 C 316.017 174.674, 317.299 179.368, 319.037 184.964 C 320.988 191.242, 322.639 194.972, 323.349 194.705 C 323.982 194.466, 327.070 193.528, 330.212 192.619 C 335.888 190.977, 336.263 190.445, 334.320 186.804 C 334.115 186.420, 332.103 186.758, 329.848 187.554 C 324.762 189.348, 325 189.367, 325 187.158 C 325 185.876, 326.215 184.953, 329 184.118 C 333.183 182.865, 333.540 182.401, 332.085 180.103 C 331.382 178.993, 330.369 178.917, 327.160 179.731 C 323.818 180.580, 323.020 180.494, 322.537 179.235 C 321.838 177.413, 321.537 177.637, 326.653 176.169 C 330.080 175.186, 330.715 174.627, 330.283 172.973 C 329.529 170.092, 329.138 170.057, 322.500 172.272 M 496.850 182.007 C 494.013 190.663, 493.753 192.232, 495.021 193.034 C 495.835 193.549, 496.950 193.976, 497.500 193.984 C 498.309 193.996, 505.325 173.891, 504.686 173.393 C 504.583 173.314, 503.523 172.949, 502.329 172.582 C 500.329 171.968, 499.898 172.710, 496.850 182.007 M 298.037 180.956 C 296.767 181.759, 296.806 182.370, 298.329 185.565 C 300.333 189.765, 300.377 189.616, 296.843 190.503 C 294.477 191.097, 294.050 190.782, 292.893 187.581 C 291.832 184.645, 291.224 184.108, 289.548 184.621 C 288.422 184.966, 287.321 185.409, 287.103 185.604 C 286.885 185.800, 288.175 189.457, 289.970 193.730 C 291.766 198.004, 293.627 202.531, 294.108 203.790 C 294.856 205.751, 295.282 205.919, 297.078 204.958 C 299.145 203.852, 299.212 202.321, 297.400 197.599 C 296.989 196.528, 297.555 195.724, 299.145 195.124 C 301.195 194.350, 301.730 194.673, 303.274 197.618 C 305.048 201, 307.284 201.967, 308.559 199.904 C 309.425 198.503, 301.989 179.995, 300.567 180.015 C 299.980 180.024, 298.841 180.447, 298.037 180.956 M 520.895 181.165 C 517.303 182.413, 512.199 194.635, 513.924 197.858 C 516.005 201.746, 523.447 204.274, 526.709 202.201 C 528.218 201.242, 533 190.571, 533 188.163 C 533 183.779, 525.631 179.519, 520.895 181.165 M 520.172 191.039 L 518.078 196.079 520.566 197.212 C 523.459 198.530, 523.926 198.134, 526.502 192.174 C 528.102 188.472, 528.165 187.717, 526.936 186.939 C 523.901 185.019, 522.261 186.012, 520.172 191.039 M 267.500 195.529 C 264.200 197.423, 261.098 199.113, 260.607 199.285 C 260.115 199.456, 260.247 200.592, 260.899 201.811 C 261.874 203.632, 262.435 203.837, 264.063 202.966 C 266.764 201.521, 267.585 202.234, 271 209 C 274.451 215.836, 275.090 216.386, 277.518 214.610 C 279.233 213.356, 279.133 212.929, 275.666 206.730 C 271.432 199.159, 271.288 198.361, 274 197.500 C 276.324 196.762, 276.474 196.008, 274.750 193.733 C 273.614 192.235, 272.952 192.399, 267.500 195.529 M 543.591 200.490 C 541.066 205.160, 539 209.419, 539 209.955 C 539 210.491, 539.835 211.376, 540.855 211.922 C 542.435 212.768, 543.099 212.217, 545.331 208.208 L 547.951 203.500 547.976 209.715 C 547.996 214.977, 548.320 216.101, 550.086 217.046 C 551.233 217.660, 552.305 218.013, 552.468 217.831 C 552.631 217.649, 554.889 213.552, 557.485 208.727 C 561.339 201.565, 561.981 199.683, 560.981 198.477 C 559.089 196.197, 558.224 196.658, 555.770 201.250 L 553.500 205.500 553.210 200 C 552.942 194.932, 551.362 192, 548.900 192 C 548.505 192, 546.116 195.821, 543.591 200.490 M 380 195.434 C 348.070 199.491, 320.632 207.826, 291.827 222.217 C 270.884 232.681, 243.600 251.197, 234.052 261.427 C 231.628 264.025, 231.623 264.068, 233.552 265.970 C 235.476 267.868, 235.608 267.801, 244.449 260.426 C 280.854 230.059, 322.101 211.218, 370.597 202.804 C 388.148 199.759, 432.146 199.491, 449.797 202.321 C 502.920 210.840, 552.200 234.626, 588.783 269.406 L 595.065 275.379 597.283 273.111 L 599.500 270.842 593 264.803 C 560.766 234.856, 518.435 212.003, 476 201.638 C 468.025 199.691, 456.775 197.354, 451 196.445 C 436.753 194.205, 394.422 193.602, 380 195.434 M 390.500 204.642 C 366.102 207.423, 351.250 210.407, 333.284 216.137 C 303.586 225.610, 274.819 241.111, 250.281 260.865 C 239.219 269.770, 238.319 270.719, 239.662 272.062 C 240.180 272.580, 244.087 270.001, 249.025 265.883 C 309.032 215.837, 388.007 196.284, 464.721 212.481 C 508.371 221.698, 551.158 243.895, 583.386 274.043 C 587.951 278.312, 590.414 279.986, 591.110 279.290 C 592.322 278.078, 584.388 270.228, 571.513 259.897 C 533.622 229.496, 485.085 209.772, 436.576 205.061 C 426.568 204.089, 397.657 203.826, 390.500 204.642 M 569.575 218.197 C 568.192 220.171, 568.235 220.476, 570.074 221.765 C 571.660 222.875, 572.395 222.917, 573.543 221.964 C 575.539 220.308, 575.370 218.712, 573.044 217.259 C 571.381 216.221, 570.860 216.362, 569.575 218.197 M 249.637 218.276 C 248.543 219.076, 248.138 220.196, 248.553 221.276 C 249.315 223.263, 250.349 223.419, 253.078 221.958 C 254.642 221.121, 254.819 220.531, 253.978 218.958 C 252.749 216.663, 252.003 216.546, 249.637 218.276 M 90.621 388.750 C 90.338 389.712, 89.795 392.254, 89.414 394.397 L 88.722 398.295 94.054 397.587 C 100.605 396.718, 101 396.483, 101 393.461 C 101 391.648, 100.006 390.534, 97.040 389.020 C 92.196 386.549, 91.279 386.510, 90.621 388.750 M 727.200 394.723 C 720.855 398.838, 721.837 401.246, 730.310 402.351 L 735.119 402.978 734.432 398.239 C 733.358 390.832, 733.269 390.788, 727.200 394.723 M 84.340 427.750 C 82.839 443.388, 83.474 488.100, 85.395 502 C 92.397 552.681, 109.332 598.333, 136.587 640 C 185.800 715.236, 266.242 768.208, 354.500 783.499 C 390.800 789.788, 436.205 789.572, 471.500 782.942 C 602.972 758.245, 706.739 656.759, 733.412 526.787 C 738.641 501.305, 739.495 491.715, 739.493 458.500 C 739.492 439.503, 739.101 426.842, 738.485 425.802 C 737.566 424.251, 737.095 424.343, 733.068 426.850 L 728.657 429.596 728.531 459.548 C 728.399 491.063, 727.226 503.071, 721.848 527.947 C 714.775 560.666, 699.117 598.943, 680.986 627.836 C 635.206 700.792, 560.952 752.774, 477.382 770.372 C 452.250 775.665, 443.568 776.468, 411.500 776.468 C 379.432 776.468, 370.750 775.665, 345.618 770.372 C 268.518 754.137, 199.367 708.773, 153.019 644.027 C 112.437 587.335, 92.052 520.101, 94.341 450.500 C 94.685 440.050, 95.243 429.699, 95.582 427.497 C 96.191 423.536, 96.149 423.471, 91.572 421.247 C 89.028 420.011, 86.549 419, 86.063 419 C 85.577 419, 84.802 422.938, 84.340 427.750 M 145.524 440.810 C 145.236 441.098, 145 445.485, 145 450.560 C 145 458.050, 145.298 459.900, 146.582 460.393 C 150.720 461.981, 151 461.392, 151 451.117 C 151 441.393, 150.960 441.225, 148.524 440.760 C 147.161 440.499, 145.811 440.522, 145.524 440.810 M 155.667 443.667 C 155.300 444.033, 155 448.083, 155 452.667 C 155 459.407, 155.287 461, 156.500 461 C 157.722 461, 158 459.333, 158 452 C 158 443.745, 157.472 441.861, 155.667 443.667 M 674.750 449.162 C 672.140 450.116, 672 450.493, 672 456.583 L 672 463 675 463 L 678 463 678 455.500 C 678 451.375, 677.888 448.036, 677.750 448.079 C 677.612 448.122, 676.263 448.610, 674.750 449.162 M 665.200 457.671 C 665.631 465.812, 668 466.161, 668 458.083 C 668 453.256, 667.680 452, 666.450 452 C 665.197 452, 664.958 453.087, 665.200 457.671 M 149.449 510.250 C 159.028 554.530, 173.772 587.338, 199.446 621.500 C 209.127 634.382, 230.793 656.853, 243 666.672 C 253.225 674.897, 270.603 686.682, 281.629 692.868 C 310.905 709.296, 348.972 721.374, 382.975 725.025 C 396.438 726.471, 426.562 726.471, 440.025 725.025 C 550.882 713.122, 642.456 633.584, 670.114 525.177 C 672.282 516.677, 673.845 509.511, 673.586 509.253 C 673.327 508.994, 671.750 509.754, 670.083 510.941 C 668.049 512.389, 666.708 514.484, 666.011 517.300 C 660.114 541.145, 653.192 559.981, 643.354 578.958 C 607.381 648.344, 541.962 698.450, 465.905 714.869 C 432.581 722.063, 392.478 722.057, 357.500 714.854 C 320.304 707.193, 282.541 689.575, 251 665.167 C 239.325 656.132, 218.440 635.554, 208.713 623.500 C 184.783 593.846, 167.056 558.225, 158.450 522.500 C 156.599 514.815, 155.444 511.979, 153.465 510.250 C 152.048 509.012, 150.455 508, 149.925 508 C 149.395 508, 149.181 509.012, 149.449 510.250 M 161 515.885 C 161 517.947, 168.107 541.380, 171.552 550.673 C 179.994 573.453, 196.167 601.497, 212.669 621.976 C 243.890 660.719, 291.132 692.033, 339.287 705.905 C 379.271 717.423, 423.506 719.254, 463.328 711.040 C 549.130 693.343, 618.993 634.001, 651.142 551.513 C 655.406 540.572, 661 521.919, 661 518.643 C 661 514.075, 658.188 519.691, 655.064 530.500 C 643.055 572.042, 621.974 607.244, 590.078 639.018 C 567.916 661.095, 550.579 673.642, 523.921 686.899 C 497.308 700.134, 467.911 708.783, 438.789 711.945 C 424.629 713.483, 395.389 713.240, 380.970 711.464 C 307.028 702.359, 241.471 661.665, 199.818 599.015 C 185.324 577.214, 171.657 546.833, 166.370 524.659 C 165.170 519.629, 163.873 516.480, 162.750 515.874 C 161.645 515.278, 161 515.282, 161 515.885 M 694.184 528.750 C 694.411 530.728, 695.062 531.500, 696.500 531.500 C 697.938 531.500, 698.589 530.728, 698.816 528.750 C 699.091 526.366, 698.782 526, 696.500 526 C 694.218 526, 693.909 526.366, 694.184 528.750 M 125.750 532.778 C 123.902 533.167, 123.270 537.431, 124.910 538.444 C 126.408 539.370, 129.001 537.905, 128.985 536.143 C 128.962 533.672, 127.706 532.366, 125.750 532.778 M 676.187 553.488 C 675.111 555.850, 675.497 556.334, 683.766 562.988 C 688.558 566.845, 692.768 570, 693.123 570 C 694.668 570, 694.820 565.458, 693.330 563.812 C 691.980 562.320, 691.928 561.588, 692.989 559.026 C 693.743 557.205, 694.977 556, 696.086 556 C 698.003 556, 700.403 552.736, 699.298 551.631 C 698.951 551.284, 693.864 551, 687.994 551 C 677.593 551, 677.292 551.063, 676.187 553.488 M 134.052 556.407 C 129.406 558.211, 125.451 560.146, 125.265 560.706 C 124.787 562.139, 128.962 573, 129.990 573 C 133.373 573, 133.873 571.892, 132.388 567.684 C 131.011 563.779, 131.126 563.315, 133.636 562.675 C 134.013 562.579, 134.843 564.048, 135.480 565.940 C 136.758 569.737, 137.765 570.432, 139.971 569.038 C 141.218 568.250, 141.247 567.571, 140.158 564.560 C 138.918 561.132, 139.222 559, 140.950 559 C 141.408 559, 142.503 560.800, 143.383 563 C 144.966 566.956, 147.568 568.289, 148.577 565.660 C 149.301 563.773, 145.106 552.987, 143.678 553.064 C 143.030 553.099, 138.698 554.603, 134.052 556.407 M 685 557.500 C 685.685 558.325, 686.592 559, 687.015 559 C 687.439 559, 688.045 558.325, 688.362 557.500 C 688.782 556.405, 688.238 556, 686.346 556 C 684.156 556, 683.948 556.232, 685 557.500 M 668.476 573.075 C 668.114 574.217, 667.971 575.302, 668.159 575.488 C 668.842 576.163, 687.266 584.066, 687.505 583.787 C 687.641 583.629, 688.045 582.542, 688.405 581.372 C 688.988 579.471, 688.051 578.801, 679.660 575.122 C 674.491 572.855, 670.009 571, 669.698 571 C 669.388 571, 668.838 571.934, 668.476 573.075 M 148.577 578.630 L 145.654 583.257 139.375 582.671 C 133.222 582.096, 133.112 582.129, 133.910 584.287 C 134.403 585.619, 136.064 586.855, 138.113 587.415 C 142.580 588.634, 142.606 588.673, 140.542 590.954 C 139.330 592.293, 138.966 593.729, 139.401 595.460 C 140.311 599.087, 141.378 598.644, 144.881 593.185 L 147.971 588.370 153.985 588.805 C 160.295 589.262, 160.639 589.063, 158.965 585.934 C 158.241 584.582, 156.866 584, 154.397 584 L 150.864 584 152.981 581.026 C 154.671 578.653, 154.880 577.644, 154.014 576.026 C 152.470 573.142, 151.860 573.434, 148.577 578.630 M 663.471 586.959 C 661.765 587.642, 656 596.453, 656 598.375 C 656 599.045, 673.474 608, 674.781 608 C 675.991 608, 680.002 599.307, 679.985 596.723 C 679.964 593.683, 679.203 592.806, 674 589.830 C 668.293 586.565, 666.008 585.942, 663.471 586.959 M 664.200 593.200 C 662.090 595.310, 662.884 596.619, 667.947 599.375 C 672.778 602.004, 672.918 602.021, 673.947 600.099 C 675.625 596.964, 675.242 596.164, 671.040 594.020 C 666.424 591.666, 665.808 591.592, 664.200 593.200 M 160.385 597.439 C 160.050 598.311, 160.360 599.729, 161.074 600.589 C 162.565 602.385, 162.739 602.227, 153.750 607.249 C 150.588 609.016, 148 610.722, 148 611.040 C 148 611.358, 148.577 612.407, 149.282 613.371 C 150.474 615.001, 151.056 614.838, 157.524 611.058 C 164.433 607.020, 164.496 607.006, 166.033 609.044 C 167.036 610.374, 168.185 610.866, 169.291 610.442 C 171.652 609.536, 171.416 608.328, 167.641 602 C 164.286 596.378, 161.471 594.609, 160.385 597.439 M 646.788 612.930 L 643.081 618.859 651.025 623.955 C 655.394 626.758, 659.577 629.284, 660.322 629.570 C 661.573 630.050, 664.740 626.148, 667.852 620.292 C 668.850 618.415, 668.727 617.924, 667.037 617.020 C 665.331 616.107, 664.724 616.455, 662.774 619.465 C 660.566 622.874, 658.657 623.871, 657.603 622.167 C 657.320 621.709, 658.167 619.747, 659.485 617.808 C 661.279 615.167, 661.595 613.995, 660.741 613.141 C 658.818 611.218, 657.257 611.849, 655.031 615.449 C 653.676 617.642, 652.371 618.696, 651.450 618.342 C 649.554 617.615, 649.574 617.521, 652.514 613.197 C 654.845 609.769, 654.904 609.409, 653.323 608.250 C 652.385 607.563, 651.365 607, 651.056 607 C 650.747 607, 648.826 609.668, 646.788 612.930 M 167.640 622.072 C 162.888 625.388, 159 628.473, 159 628.928 C 159 629.383, 159.694 630.331, 160.542 631.035 C 161.821 632.096, 162.590 631.940, 165.057 630.116 C 167.570 628.258, 168.121 628.152, 168.613 629.433 C 168.933 630.267, 168.247 632.482, 167.090 634.355 C 165.022 637.700, 165.019 637.801, 166.868 640.085 L 168.750 642.410 170.938 638.122 C 172.459 635.140, 173.585 634.010, 174.635 634.413 C 177.597 635.550, 183 631.198, 183 627.675 C 183 626.475, 181.488 623.367, 179.640 620.768 L 176.281 616.043 167.640 622.072 M 173.734 624.129 C 172.321 624.920, 172.240 625.412, 173.257 627.040 C 173.930 628.118, 175.021 629, 175.682 629 C 177.673 629, 178.198 627.121, 176.776 625.090 C 175.778 623.666, 175.001 623.420, 173.734 624.129 M 635.933 628.580 C 634.628 630.154, 634.703 630.571, 637.504 637.301 C 638.187 638.943, 637.809 639.044, 633.224 638.435 C 628.808 637.849, 628.062 638.016, 627.105 639.804 C 626.130 641.625, 626.880 642.518, 634.258 648.315 C 642.032 654.424, 642.605 654.698, 644.350 653.150 C 646.126 651.575, 646.025 651.357, 641.850 647.756 L 637.500 644.003 640.698 644.917 C 645.242 646.215, 646.705 644.264, 644.452 639.908 L 642.779 636.672 646.617 639.836 C 648.728 641.576, 650.980 643, 651.621 643 C 652.941 643, 654.261 640.231, 653.515 639.025 C 652.868 637.978, 638.525 627, 637.803 627 C 637.496 627, 636.655 627.711, 635.933 628.580 M 182.500 643.277 C 178.650 646.665, 175.558 649.987, 175.629 650.659 C 175.700 651.332, 177.500 653.888, 179.629 656.339 C 182.722 659.900, 183.852 660.608, 185.250 659.863 C 187.602 658.608, 187.465 657.706, 184.360 654.016 C 182.309 651.579, 181.988 650.614, 182.922 649.690 C 183.853 648.768, 184.772 649.288, 187.006 652 C 189.721 655.295, 189.990 655.401, 191.605 653.804 C 193.224 652.203, 193.174 651.918, 190.718 648.697 C 188.731 646.092, 188.392 645.008, 189.285 644.115 C 190.178 643.222, 191.170 643.775, 193.477 646.452 C 196.222 649.635, 196.673 649.826, 198.380 648.524 C 200.176 647.154, 200.070 646.862, 196.037 642.044 C 193.714 639.270, 191.293 637.026, 190.657 637.059 C 190.021 637.091, 186.350 639.889, 182.500 643.277 M 614.490 654.010 L 609.556 659.019 617.528 666.405 C 626.486 674.704, 625.895 674.693, 632.252 666.677 C 635.109 663.074, 635.185 662.758, 633.570 661.177 C 631.963 659.603, 631.660 659.733, 628.656 663.277 C 626.201 666.174, 625.180 666.780, 624.278 665.878 C 623.375 664.975, 623.781 663.876, 626.017 661.163 C 628.216 658.496, 628.665 657.302, 627.844 656.312 C 626.143 654.262, 624.566 654.744, 622.113 658.060 C 620.256 660.573, 619.588 660.903, 618.382 659.902 C 617.124 658.858, 617.372 658.211, 620.114 655.383 C 622.803 652.608, 623.109 651.837, 622.034 650.541 C 621.331 649.693, 620.456 649, 620.090 649 C 619.724 649, 617.204 651.254, 614.490 654.010 M 199.084 661.416 C 194.043 666.490, 191.912 669.329, 192.329 670.414 C 193.239 672.786, 195.045 672.349, 198.612 668.892 L 201.818 665.784 201.659 669.142 C 201.507 672.346, 201.654 672.493, 204.858 672.341 L 208.216 672.182 204.903 675.600 C 201.777 678.826, 201.686 679.115, 203.300 680.729 C 204.914 682.343, 205.434 682.019, 212.504 674.996 C 219.870 667.679, 219.965 667.520, 218.094 665.650 C 216.305 663.861, 215.922 663.839, 211.688 665.281 L 207.184 666.816 208.719 662.312 C 210.161 658.078, 210.139 657.695, 208.350 655.906 C 206.480 654.035, 206.322 654.129, 199.084 661.416 M 595.452 672.250 L 591.020 676.500 597.760 684.177 C 601.467 688.400, 604.725 691.873, 605 691.896 C 605.275 691.918, 606.372 691.276, 607.439 690.470 C 609.332 689.038, 609.314 688.937, 606.689 686.197 C 605.210 684.653, 604 683.078, 604 682.695 C 604 681.613, 607.635 681.877, 610.461 683.164 C 612.460 684.075, 613.560 684.038, 615.509 682.995 C 619 681.127, 618.653 680.443, 613.476 678.993 C 609.888 677.989, 609.067 677.364, 609.507 675.977 C 610.309 673.451, 605.421 668, 602.353 668 C 600.810 668, 598.222 669.594, 595.452 672.250 M 599.630 674.857 C 598.120 676.525, 598.106 676.843, 599.494 677.995 C 601.629 679.767, 605.616 676.447, 603.874 674.348 C 602.386 672.555, 601.631 672.646, 599.630 674.857 M 220.580 682.051 C 215.068 688.635, 214.059 690.366, 215.043 691.551 C 216.992 693.900, 218.229 693.213, 223.500 686.854 C 231.318 677.423, 231.431 677.225, 230 675.500 C 229.315 674.675, 228.432 674, 228.037 674 C 227.642 674, 224.286 677.623, 220.580 682.051 M 239 685.709 C 233.409 687.765, 232.591 692.757, 236.999 697.913 C 239.707 701.080, 240.092 703, 238.018 703 C 237.543 703, 235.759 701.606, 234.055 699.901 C 232.150 697.996, 230.360 697.031, 229.409 697.396 C 225.984 698.711, 231.381 706.229, 236.757 707.632 C 239.676 708.393, 243.785 705.706, 244.587 702.511 C 245.048 700.672, 244.418 699.053, 242.103 696.129 C 238.460 691.531, 238.344 691, 240.977 691 C 242.064 691, 243.691 692.125, 244.592 693.500 C 247.362 697.728, 250.840 696.341, 249.080 691.711 C 248.312 689.690, 242.260 684.794, 240.882 685.079 C 240.672 685.122, 239.825 685.406, 239 685.709 M 564.271 695.522 L 562.205 696.970 564.640 706.735 C 567.957 720.039, 567.593 719.288, 570.085 717.955 C 571.594 717.147, 572.068 716.138, 571.742 714.433 C 571.122 711.187, 575.421 708.158, 578.193 709.888 C 579.521 710.718, 580.606 710.746, 582.023 709.988 C 585.332 708.217, 585.778 708.704, 569.942 696.788 C 566.676 694.330, 566.143 694.211, 564.271 695.522 M 569 704.406 C 569 706.355, 570.275 707.066, 571.933 706.042 C 572.967 705.402, 572.786 704.956, 571.135 704.072 C 569.403 703.145, 569 703.208, 569 704.406 M 546.750 706.080 C 545.448 706.839, 545 708.396, 545 712.168 L 545 717.237 541.443 714.525 C 537.857 711.789, 533 711.584, 533 714.168 C 533 715.037, 541.313 731.273, 542.550 732.819 C 542.690 732.995, 543.713 732.572, 544.823 731.879 C 546.827 730.627, 546.824 730.587, 544.331 725.667 L 541.822 720.715 544.475 722.801 C 547.883 725.483, 549.997 724.658, 550.009 720.643 L 550.019 717.500 552.566 721.750 C 555.283 726.283, 555.666 726.512, 558 724.994 C 559.270 724.168, 558.739 722.560, 554.536 714.509 C 551.806 709.279, 549.331 705.014, 549.036 705.030 C 548.741 705.047, 547.712 705.519, 546.750 706.080 M 267.552 714.351 C 265.049 718.945, 263 723.204, 263 723.816 C 263 724.429, 263.887 725.404, 264.971 725.984 C 266.706 726.913, 267.239 726.468, 269.424 722.270 L 271.907 717.500 271.953 720.781 C 272.010 724.757, 274.284 725.958, 277.037 723.466 C 279.524 721.216, 279.514 722.072, 276.998 727.004 L 274.996 730.928 277.125 732.067 C 279.610 733.397, 279.236 733.839, 285.128 722.586 C 289.055 715.086, 289.176 714.602, 287.445 713.336 C 285.034 711.573, 284.942 711.591, 280.944 714.549 L 277.500 717.097 277.186 712.318 C 276.883 707.718, 275.854 706.048, 273.302 706.015 C 272.644 706.007, 270.056 709.758, 267.552 714.351 M 517.500 720.125 C 514.750 721.233, 512.129 722.502, 511.675 722.945 C 510.930 723.672, 517.220 740.564, 518.831 742.165 C 519.199 742.531, 522.326 741.690, 525.780 740.297 C 531.290 738.075, 531.980 737.503, 531.406 735.632 C 531.046 734.459, 530.662 733.392, 530.553 733.261 C 530.444 733.129, 528.440 733.774, 526.099 734.693 C 522.554 736.086, 521.703 736.137, 521.002 735.002 C 520.385 734.005, 521.356 733.086, 524.632 731.570 C 528.765 729.657, 528.997 729.355, 527.694 727.584 C 526.353 725.762, 526.088 725.748, 522.232 727.290 C 518.636 728.729, 518.115 728.741, 517.598 727.396 C 517.184 726.315, 518.308 725.309, 521.517 723.890 C 525.471 722.140, 525.890 721.663, 524.973 719.950 C 523.716 717.601, 523.763 717.600, 517.500 720.125 M 295.250 728.474 C 291.262 733.119, 288 737.110, 288 737.343 C 288 738.623, 292.645 738.727, 294.025 737.478 C 296.454 735.279, 301.807 737.552, 302.203 740.952 C 302.403 742.671, 303.194 743.599, 304.635 743.804 C 306.678 744.096, 306.789 743.647, 307.224 733.304 C 307.475 727.362, 307.414 722.213, 307.090 721.862 C 306.765 721.512, 305.600 720.956, 304.500 720.627 C 302.907 720.151, 301.023 721.749, 295.250 728.474 M 321.489 728.328 C 318.944 736.004, 315.938 747.271, 316.330 747.663 C 316.605 747.939, 319.456 748.978, 322.665 749.973 C 326.921 751.293, 328.699 751.474, 329.235 750.641 C 330.740 748.302, 329.892 747.048, 326.019 745.888 C 321.641 744.576, 321.613 744.365, 324.652 735.624 C 325.394 733.493, 326 730.958, 326 729.991 C 326 727.987, 322.081 726.542, 321.489 728.328 M 491.674 729.221 C 489.569 729.779, 487.624 730.816, 487.351 731.527 C 486.960 732.547, 489.703 742.818, 492.465 750.672 C 492.699 751.335, 493.813 751.600, 495.031 751.282 C 496.958 750.778, 497.116 750.258, 496.531 746.359 C 496.172 743.962, 496.221 742, 496.641 742 C 497.061 742, 498.823 743.375, 500.557 745.055 C 503.069 747.490, 504.247 747.976, 506.355 747.447 C 509.727 746.601, 509.681 745.880, 506.090 743.225 C 503.500 741.310, 503.240 740.632, 503.719 737.058 C 504.093 734.266, 503.754 732.274, 502.606 730.521 C 500.800 727.765, 498.292 727.467, 491.674 729.221 M 343.454 735.386 C 338.822 754.374, 338.765 755.583, 342.544 754.844 C 343.843 754.589, 344.780 752.417, 346.146 746.500 C 347.161 742.100, 348.214 737.539, 348.486 736.365 C 348.872 734.696, 348.433 734.125, 346.475 733.751 C 344.538 733.380, 343.853 733.751, 343.454 735.386 M 470 734.903 C 465.875 735.781, 462.613 736.837, 462.750 737.250 C 462.887 737.663, 463 738.726, 463 739.613 C 463 740.832, 463.723 741.121, 465.955 740.793 C 468.901 740.361, 468.915 740.384, 470.600 748.180 C 472.127 755.248, 472.516 756, 474.645 756 C 477.428 756, 477.520 754.949, 475.480 746.500 C 473.635 738.861, 473.576 739.323, 476.500 738.589 C 478.082 738.192, 479 737.256, 479 736.040 C 479 733.235, 478.266 733.142, 470 734.903 M 494.104 733.914 C 493.337 734.400, 492.964 735.463, 493.275 736.275 C 494.119 738.474, 499 737.287, 499 734.883 C 499 732.876, 496.520 732.385, 494.104 733.914 M 359.668 739.046 C 357.504 740.748, 356.958 741.924, 357.195 744.366 C 357.448 746.963, 358.313 747.928, 362.247 750 C 364.858 751.375, 366.996 753.063, 366.997 753.750 C 367.001 755.353, 365.163 755.331, 362 753.692 C 360.625 752.979, 358.421 752.653, 357.101 752.969 L 354.702 753.542 357.101 756.199 C 360.480 759.941, 366.727 760.834, 369.761 758.008 C 371.267 756.605, 372 754.761, 372 752.375 C 372 749.065, 371.664 748.686, 366.985 746.709 C 364.227 745.544, 362.135 744.120, 362.336 743.545 C 362.714 742.467, 364.164 742.474, 369.750 743.582 C 372.226 744.073, 373 743.880, 373 742.768 C 373 740.556, 369.909 738.245, 365.973 737.515 C 363.205 737.002, 361.848 737.331, 359.668 739.046 M 449.004 741.489 L 447.852 744.978 445.450 742.123 C 443.645 739.977, 442.421 739.388, 440.524 739.751 L 438.001 740.233 441.609 745.149 L 445.218 750.065 443.109 754.968 C 440.479 761.083, 440.472 761, 443.552 761 C 445.489 761, 446.356 760.276, 447.150 758 C 448.423 754.347, 449.277 754.247, 451.408 757.500 C 453.066 760.030, 456.364 760.839, 457.503 758.994 C 457.845 758.441, 456.514 756.023, 454.544 753.619 L 450.964 749.250 452.982 744.542 C 455.552 738.547, 455.518 738, 452.578 738 C 450.697 738, 449.897 738.781, 449.004 741.489 M 415.800 741.750 C 415.625 742.163, 415.628 747.112, 415.807 752.750 L 416.133 763 420.441 763 C 428.084 763, 431.142 762.001, 430.802 759.615 C 430.535 757.744, 429.953 757.539, 425.750 757.840 C 421.490 758.145, 421 757.965, 421 756.090 C 421 754.280, 421.602 754, 425.500 754 C 429.633 754, 430 753.796, 430 751.500 C 430 749.204, 429.633 749, 425.500 749 C 422.167 749, 421 748.611, 421 747.500 C 421 746.389, 422.167 746, 425.500 746 C 429.633 746, 430 745.796, 430 743.500 C 430 741.073, 429.796 741, 423.059 741 C 419.241 741, 415.975 741.337, 415.800 741.750 M 391 753.566 C 391 755.776, 391.382 756.089, 393.750 755.816 C 395.719 755.590, 396.591 754.861, 396.820 753.250 C 397.091 751.336, 396.681 751, 394.070 751 C 391.441 751, 391 751.369, 391 753.566" stroke="none" fill="#ff6c04" fill-rule="evenodd"/><path d="" stroke="none" fill="#fc6c04" fill-rule="evenodd"/></svg>